/* XPM */
static char *rfunction[]={
"24 24 18 1",
"B c #000000",
"k c #181818",
"Q c #1f1f1f",
"z c #232323",
"L c #313131",
"Z c #3c3c3c",
"O c #404040",
"a c #5e5e5e",
"W c #676767",
"U c #757575",
"N c #848484",
"P c #969696",
"0 c #a0a0a0",
". c None s backgroundToolBarColor",
"G c #b9b9b9",
"I c #c6c6c6",
"T c #d5d5d5",
"# c #1532ed",
"........................",
"...............#........",
"...............##.......",
".....#############......",
".....##############.....",
".....#############......",
"...............##.......",
"...............#........",
"........................",
"........................",
"........................",
"..............az..zU....",
"....ILBBz...GkP....aO...",
"....zU......BG......LP..",
"....BG.....UO.......0z..",
"..BBBBBBP..zP.......GB..",
"....BG.....BG........BI.",
"....BG.....BG........BI.",
"....BG.....LP.......GB..",
"....BG.....NO.......PL..",
"....BG......Q0......z0..",
"....BG......TQU0..0ZW...",
"..............NL..Z0....",
"........................"};
