/* XPM */
static char *splus_letters_large[] = {
/* width height num_colors chars_per_pixel */
"    51    38      236            2",
/* colors */
".. c #043e74",
".# c #74a29c",
".a c #547a74",
".b c #bcb2b9",
".c c #0c6a9c",
".d c #045282",
".e c #bcdae8",
".f c #94c2cc",
".g c #245678",
".h c #e4e2e3",
".i c #94a2a4",
".j c #04528f",
".k c #5c8aa4",
".l c #346688",
".m c #848a8c",
".n c #04427c",
".o c #e4f4fc",
".p c #94b4b4",
".q c #cceef4",
".r c #045e99",
".s c #4c7a88",
".t c #a4d6f0",
".u c #6c8e94",
".v c #f4f2e4",
".w c #7cb2d4",
".x c #b4b2b4",
".y c #145274",
".z c #044c74",
".A c #acc2d4",
".B c #dcdddc",
".C c #34729c",
".D c #c4c6c4",
".E c #144e84",
".F c #94b4cc",
".G c #fcfaeb",
".H c #245a88",
".I c #5496b9",
".J c #044a80",
".K c #c4e6f1",
".L c #9cc6ec",
".M c #347aac",
".N c #6c96a8",
".O c #145a80",
".P c #6ca2c8",
".Q c #045a91",
".R c #d4fafc",
".S c #145e8c",
".T c #144264",
".U c #446e89",
".V c #949594",
".W c #5c7e84",
".X c #548ec4",
".Y c #e4fdfc",
".Z c #044a8c",
".0 c #e4eef2",
".1 c #a4a3a4",
".2 c #346aa0",
".3 c #dceef4",
".4 c #bcd2d4",
".5 c #f4faf9",
".6 c #74aacc",
".7 c #044669",
".8 c #246696",
".9 c #045a84",
"#. c #ccdedc",
"## c #9ccad8",
"#a c #a4b6b7",
"#b c #144a6e",
"#c c #94bacc",
"#d c #346288",
"#e c #6c9bbc",
"#f c #bcbebc",
"#g c #c4e2ec",
"#h c #0c548c",
"#i c #7c9e9c",
"#j c #f4f2f4",
"#k c #14527c",
"#l c #0c4c7f",
"#m c #0c5379",
"#n c #c4dae4",
"#o c #245e7c",
"#p c #6492a4",
"#q c #346e94",
"#r c #ecf4f2",
"#s c #44829c",
"#t c #b4cad0",
"#u c #145a8e",
"#v c #447490",
"#w c #246294",
"#x c #448abc",
"#y c #fcfefb",
"#z c #2c6f9a",
"#A c #a4bacc",
"#B c #bcbaba",
"#C c #94a6c0",
"#D c #04569c",
"#E c #648aa0",
"#F c #d4f6fc",
"#G c #8cb2c4",
"#H c #acbabc",
"#I c #d4e8f0",
"#J c #84aabc",
"#K c #1c5b82",
"#L c #7ca2c1",
"#M c #5486a4",
"#N c #ecebe9",
"#O c #0c5fa4",
"#P c #9cbdce",
"#Q c #accee4",
"#R c #0c4270",
"#S c #6c6e6c",
"#T c #a4c4cc",
"#U c #0c467c",
"#V c #9cb6b4",
"#W c #d4eef8",
"#X c #447c98",
"#Y c #b4d4e8",
"#Z c #6c92a4",
"#0 c #0c4b6f",
"#1 c #cccccc",
"#2 c #2c5e8c",
"#3 c #649cc0",
"#4 c #cce7f1",
"#5 c #a4cee8",
"#6 c #4482ac",
"#7 c #d4d6d4",
"#8 c #648abc",
"#9 c #9c9b9c",
"a. c #acadac",
"a# c #547a98",
"aa c #34627c",
"ab c #1c669c",
"ac c #84badc",
"ad c #bcced4",
"ae c #6c8ea4",
"af c #bcd4e8",
"ag c #dcf6fc",
"ah c #8cbad4",
"ai c #7c9bb1",
"aj c #9cc6dc",
"ak c #3c6a84",
"al c #7496a7",
"am c #1c5e94",
"an c #5c90b8",
"ao c #b4dee4",
"ap c #4c728c",
"aq c #4c86ac",
"ar c #dce6e9",
"as c #8caebc",
"at c #94aec0",
"au c #7ca2a8",
"av c #5c96c4",
"aw c #0c5a90",
"ax c #2c668c",
"ay c #2c5e70",
"az c #5c86a4",
"aA c #ece6dc",
"aB c #8c8d8f",
"aC c #748c8c",
"aD c #fcf6ec",
"aE c #84b6cc",
"aF c #1c5470",
"aG c #3c7aa4",
"aH c #74a6c4",
"aI c #7cacc8",
"aJ c #a4cbd7",
"aK c #1c4e6c",
"aL c #749bc1",
"aM c #c4c2c4",
"aN c #fcf6f5",
"aO c #1c5682",
"aP c #b4cbe1",
"aQ c #747274",
"aR c #4c7a9c",
"aS c #04468c",
"aT c #94b2c4",
"aU c #0462a4",
"aV c #84a6b4",
"aW c #9ccaf4",
"aX c #6c9ab4",
"aY c #dcfbfc",
"aZ c #14629c",
"a0 c #14466c",
"a1 c #ecfdfc",
"a2 c #dcf2fc",
"a3 c #0c5384",
"a4 c #c4dcf4",
"a5 c #ecf5fc",
"a6 c #44749c",
"a7 c #2c6ea4",
"a8 c #648eac",
"a9 c #8cb6d4",
"b. c #7ca6cc",
"b# c #eceef4",
"ba c #a4c6dc",
"bb c #9cb2c4",
"bc c #b4daf4",
"bd c #9ca29c",
"be c #c4d2dc",
"bf c #3c6e90",
"bg c #b4babb",
"bh c #4c82a4",
"bi c #045a9c",
"bj c #044674",
"bk c #0c5a84",
"bl c #4c829c",
"bm c #5486b4",
"bn c #044272",
"bo c #bcb6b8",
"bp c #045684",
"bq c #bcdee7",
"br c #245a7c",
"bs c #e4e6e4",
"bt c #045691",
"bu c #5c8ea9",
"bv c #04467e",
"bw c #ccf2f9",
"bx c #04629c",
"by c #f4f6ec",
"bz c #b4b6b5",
"bA c #fcfeec",
"bB c #245e88",
"bC c #044e81",
"bD c #9ccae4",
"bE c #347ea4",
"bF c #5c828c",
"bG c #044e8d",
"bH c #346e9c",
"bI c #dcf2ec",
"bJ c #0c6298",
"bK c #f4fefc",
"bL c #74aec4",
"bM c #a4babc",
"bN c #94bed4",
"bO c #f4f6f4",
"bP c #145680",
/* pixels */
".mbgbobo.bbo#Bbg#aaVa8.l#ba0.7a0br.U.N.p#abg#Bbobobo#B#Bbo.b.bbz#B#Bbg#Bbz#B.V#SaQ#SaB.x#B#B#B#Bbg#B#B",
".x.5#yaN#y#yar#a.Way#l#h#hbtaw.d#l#K.gay.uada5#ybO#j#y#yaN#yaN#y#y#y#y#y#y#y#1.V#9.V#BbO#y#y#y#y#y#y#y",
"#B#y#ybKagbDaq#u.JbGbtbtbt.QbpbC#h.d.JbC.JbP.X.ta1bK#y#y#y#y#y#y#y#y#y#y#y#y.D#9#9#9#BbO#y#y#y#y#y#y#y",
"bo.G#y.oas.lbj.Jbt.Qbt.J.J.9bk.JbvbG.d.dbtbvbvbf#Ta1#y#y#yaN#y#y#y#y#y#y#y#y.D.V#9.V#BbO#y#y#y#y#y#y#y",
"#B#y.Yah.8bv.QbJ.j#m#K#X#palal.Na8#qaO#l#Dbt.j.J#zaja1#yaN#y#y#y#y#y#y#y#y#y.D#9#9#9#faN#y#y#y#y#y#y#y",
"bg#ybqa6...jbi.J.S#3.tbw.Y.Ya1aY.Rbw.Lbm#ubGbtbC.7ap#n#y#y#yaN#y#y#y#y#y#y#y.D#9.V#9#B#y#y#y#y#y#y#y#y",
"bza1b..J.ZbibC.g.F.0#y#y.G#y#y#ybK#y#yb##CaF.d.c.da3.Pa2#yaN.G#y#y#y#y#y#y#y.D#9#9.V#BbO#y#y#y#y#y#y#y",
"bz#Ia6..aZ.jbG#ea1#y#y#y#y#y#y#y#y#y#y#y.oaE.y.z.rbjax#Y#yaD.v#N.h.hbsbs.hbs.x#9#9#9.x.h#Nbs.hbs.hbs#j",
"#Ha4aObG#DbG#ubabK#y.G#y#y#y#y.5#yaNaNaN#y#W#s.JbxbtbC.6a1#yaAa.#9.1#9.1.1#9#9#9#9#9bd#9.1.1.1#9#9.1.B",
"#H.AaObGbGbtab#5bK#y#y.G#y#y#y#y#y#yaN.G#ya1bL.zbt.dbnaz.3#y.h.1aB.V#9aB.V#9#9#9#9#9#9#9.V.V#9.V.V#9.B",
"#H#AaO.Q#DbtbkaEa1#y#y.G#y#y#yaN#yaN#yaNaN#y##.O.z#m#Rap#n#ybs.1.V.1#9#9#9.1#9.Vbd#9#9#9#9#9#9.1.V.1.B",
"bg#t#KbC.rbt.d#s#WbK#y#y#y#yaN#yaN#y#yaNaNbK#gaIaHaIaibb#I#y#r#1#1#1.D#1#1#1.x#9#9#9a..D#1#1#1#1#1#1b#",
"bgaraabjbi.Qbp#mbuaJbI#y#y#y#y#yaNaN#y#y#y#ybK#y#y#y#y#y#y#y#y#y#y#y#y#y#y#y#1#9.V#9#fbO#y#y#y#y#y#y#y",
"bga5.kbCbt.rbx.z.7ak#Z#Pa4.0#y#y#y#y#y#y#y#j#y#y.5#y#y#y#yaN#y#y#y#y#y#y#y#y#f#9#9.V#B#y#y#y#y#y#y#y#y",
"bo#y#Qa7.Zbt.r.Q.QbC.Z#h.2#8#C#A.4ar#r#y#y#yaNaN#y#y#y#y#y#yaN#y#y#y#y#y#y#yaM.V#9.V#fbO#y#y#y#y#y#y#y",
"bo#y.YaIam..bv.Qbtbtbt#laS#Ra0aKaka#ae#c.ea2bK#y#y#yaN.G#y#y.5#y#y#y#y#y#y#y.D#9bd#9#faN#y#y#y#y#y#y#y",
"bo.G#ya5at#d#UaS#D#Dbi.r.r.QbtbtbG.Z.Z.jaban.f#.bO#y#y#y#y#y.5#y#y#y#y#y#y#y.D.V#9.VbobO#y#y#y#y#y#y#y",
"boaN#y#ya1bcaLax#U.JbCbGbp.Q.9bt.j.j.j.j.J.zaK.U#Pa2bK#y#y#y#y#y#yaN#y#y#y#y.D.VaBaBbzbO#y#y#y#y#y#y#y",
"#B#y#y#yaNbK.oaf#Jan.C.ObCbC.d.d.j.jbi.rbi.j#l#0#KaX#I#y.5.G.G#y#y#y#y#y#y#y#1.xa..1.D#y#y#y#y#y#y#y#y",
"bo#y#yaN.5#y#y#ybK#FaW.Paq#o#b.7bv.J#hbt.j.jaZawbnaFaEa1.5aN#y#y#y#y#y#y#y#y.h#7.h.B.h#y#y#y#y#y#y#y#y",
"#B#y.G.G#y.G#y.G#y#y.Y#IaoaJ#GaXaq#w#0.Jbtbi#Dbibi.J.MaobK.G.G#y#y#y#y#y#y#yaN#y#yaN#y#yaN#y#y#y#y#y#y",
"bg#y#y#y#y#yaN#y#y#ybKbKbKbKbKa1.3#Y.F.kbBbC.dbiaU.jbv#3.o#yaD#y#y#y#y#y#y#y#y#y#y#y#y#y#y#y#y#y#y#y#y",
"#HbK#y.5#y#y.G.G.G#y#y#y#y#y#y#y#y#y#y.0#Tbha3.j#Dbibv#zaf#y.G#y#y#y#y#y#y#y#y#y#y#y#y#y#y#y#y#y#y#y#y",
"#Ha1a1a1a1#y.GaN#y#y#y#y#y#y.GaN#y.G#y#y#y.K#Mbj.jbi.jbP#c#y#y#y#y#y#y#y#y#y#y#y#y#y#y#y#y#y#y#y#y#y#y",
".a.##i.#au#t#y#yaN#y#y#y#y#y.GaN.G.G.GbA#y#y#P.O.jbt.jbv#LbK#y#y#y#y#y#y#y#y#y#y#y#y#y#y#y#y#y#y#y#y#y",
".T#0#0#0aK#EbK#y#y.G#y#y#y#y#y#y#y#y.G#y#y#y#gaG.JbC.jbn#ebK#y#y#y#y#y#y#y#y#y#y#y#y#y#y#y#y#y#y#y#y#y",
"br#m.QbC.JaR.3#yaNaN#y#y#y#y#y#y#y#yaN.GaD.G#Wbhbv.j.Q.JaXbK#y#y#y#y#y#y#y#y#y#y#y#y#y#y#y#y#y#y#y#y#y",
"#v#0.d.j.J.8#Q#y#y.G#y#y#y#ybK#y#yaN#y#ybObK.ebHbvbtbt#l#LbK#y#y#y#y#y#y#y#y#y#y#y#y#y#y#y#y#y#y#y#y#y",
".NbP.j.r.d#h#LbK#y#y#y#y#ybK#ybKbK#y#y#y#y#y#P.ObGbt.Z.Ea9#y#y#y#y#y#y#y#y#y#y#y#y#y#y#y#y#y#y#y#y#y#y",
"at.s.Jbt#D.ZaxbabO#y#y#ybK#y#y#y#y#y#y#y#y#4an.Jbt#D.n.2#Y#y#y#y#y#y#y#y#y#y#y#y#y#y#y#y#y#y#y#y#y#y#y",
"bMaT#k.Z#D#O.n.UbeaN#y#y#y#y#y#y#y#y#y#y.0ai.gbC#DbibGav#F#y.G#y#y#y#y#y#y#y#y#y#y#y#y#y#y#y#y#y#y#y#y",
"#B.0#Ebnbp#ObGbG.8.PbcaYa1a1.YbKbKbKaYaW#x#h.Zbibtbj.2#Q#y#yaN#y#y#y#y#y#y#y#y#y#y#y#y#y#y#y#y#y#y#y#y",
"bo#y.e#X.J.j.r#DaS#hbHbFaCau.p#V.iaC.sam.JbG.r#Dbv.HbN.5.5aNaN#y#y#y#y#y#y#y#y#y#y#y#y#y#y#y#y#y#y#y#y",
"#B#ybKaPa#a0.EbC#h.d.zbC#mawaw#u.S.d.J.d.jbCbC#b#d#G.o#y#j#y#y#y#y#y#y#y#y#y#y#y#y#y#y#y#y#y#y#y#y#y#y",
"bzbObKa1.KaL#2#la3bCbC.d.j.jbGbvbGbtbt.jbCbj.yblaJ.YbKbKbK#y#y#y#y#y#y#y#y#y#y#y#y#y#y#y#y#y#y#y#y#y#y",
"#B#yaN#y#ya5aPaiak#o#mbj.zbC#h.j.d.d.z.7br#M#P#I#y#yaN#y#y#y#y#y#y#y#y#y#y#y#y#y#y#y#y#y#y#y#y#y#y#y#y",
"#B#y#y#yaN#y.5ag.K.t.w.I#6.Ca7a7#zbE.Iacbc.q.Y#y#y#y#y.G#y.5bK#y#y#y#y#y#y#y#y#y#y#y#y#y#y#y#y#y#y#y#y",
"bo#y#y#y#y.5#y#y#y#y#y#ybO#r#r.5by.5#y#y#y#y#y#y#y#y#y#y#y#ybO#y#y#y#y#y#y#y#y#y#y#y#y#y#y#y#y#y#y#y#y"
};
