/* XPM */
static char *spluslogo[]={
"24 24 10 1",
"a c None s backgroundToolBarColor",
"g c #000000",
"h c #838383",
"# c #ce3000",
"f c #ce3062",
"e c #ce6262",
". c #ce629b",
"b c #cecece",
"d c #ffcece",
"c c #ffceff",
".##aaaa###aa#aab#a#ba.##",
"#a#caaa#db#a#aab#a#bd#a#",
"##caaaa#b#.a#aad#a#ba##c",
"a.#a##a##.ca#aab#a#daa.#",
"ea#aaaa#daaa#aab#a#bbea#",
"##.aaaa#daaa###a.f#ac##.",
"aaaaaaaaaaaaaaaaaaaaaaaa",
"aaaaaaaaaaaaaaaaaaaaaaaa",
"aaaaaggga###ahhhaaaaaaaa",
"aaaaaggga###ahhhaaaaaaaa",
"aaaaaggga###ahhhaaaaaaaa",
"aaaaaaaaaaaaaaaaaaaaaaaa",
"aaaaa###ahhhaaaahhhaaaaa",
"aaaaa###ahhhaaaahhhaaaaa",
"aaaaa###ahhhaaaahhhaaaaa",
"aaaaaaaaaaaaaaaaaaaaaaaa",
"aaaaahhhaaaahhha###aaaaa",
"aaaaahhhaaaahhha###aaaaa",
"aaaaahhhaaaahhha###aaaaa",
"aaaaaaaaaaaaaaaaaaaaaaaa",
"aaaaaaaahhha###agggaaaaa",
"aaaaaaaahhha###agggaaaaa",
"aaaaaaaahhha###agggaaaaa",
"aaaaaaaaaaaaaaaaaaaaaaaa"};
