/* XPM */
static char *dummy[]={
"25 19 151 2",
"Qt c None s backgroundToolBarColor",
"#M c #044b83",
"#R c #044c86",
"#t c #044c87",
"ae c #044d87",
"an c #044e7f",
".o c #044e81",
"#l c #044e8d",
"ak c #044f84",
".B c #044f88",
"#m c #044f8e",
"am c #045188",
".j c #04518b",
".O c #045191",
"#6 c #04528f",
"#O c #045388",
".k c #04538c",
"#U c #04538e",
"#Y c #045392",
".l c #045489",
"## c #04548c",
"#i c #045490",
"#v c #045492",
"#. c #04558e",
"#C c #045593",
"#k c #04568d",
"#B c #045695",
"#G c #045698",
".Y c #045795",
".R c #045890",
"#j c #04598f",
".4 c #045995",
"aj c #054e7b",
"al c #054e89",
"#h c #054e8d",
"#S c #055188",
"#V c #05518d",
".m c #055282",
".K c #055284",
".5 c #055583",
".t c #055791",
"#u c #055894",
".n c #064e86",
"#s c #074d76",
".p c #074e83",
"a. c #074f89",
"#a c #074f8a",
"af c #075389",
"#9 c #07548e",
".A c #075592",
".F c #075594",
"#1 c #075a99",
".c c #094d79",
".9 c #094f89",
".J c #095681",
"#A c #0b568d",
".s c #0c4f85",
"#5 c #0c5188",
"#w c #0d5486",
".b c #0e4e7d",
".N c #105287",
".X c #105685",
"#H c #115789",
"#Z c #13508a",
"#2 c #135287",
"#F c #195c8a",
".i c #1a5c8b",
"#8 c #1b5684",
"ai c #1b5a81",
"ad c #1c5d87",
"#P c #1d5c8c",
"#r c #1d5f8a",
"#N c #1f5b7d",
"ao c #1f5c85",
"#0 c #205a86",
"#n c #206292",
".u c #216794",
".d c #245b81",
".G c #256390",
".3 c #265f85",
"a# c #266287",
"#x c #296286",
"#b c #2a5f96",
"#g c #2b6395",
".a c #2c658f",
".Q c #307195",
".E c #326897",
".S c #356f98",
".Z c #35789b",
"ag c #396c94",
"#I c #3a6a78",
"#z c #3f7497",
".1 c #3f7c9e",
"#J c #427585",
"aa c #42768f",
"#X c #447ca1",
".C c #457b9a",
".z c #457ba8",
"ac c #48778f",
".q c #4e86b0",
"#7 c #4f86b5",
".6 c #50829b",
"#q c #538db5",
"#D c #538eb3",
".e c #547f91",
"ab c #5487a1",
"#T c #58859c",
"ah c #5983a7",
"#c c #5a7d99",
".2 c #5b809c",
".P c #5d94bb",
"#K c #6c91a0",
"#4 c #6c99ba",
"#L c #6c9cb7",
"#o c #7097a7",
"ap c #739eb3",
".v c #73a7c0",
".0 c #7cacc3",
"#y c #7faac6",
".# c #82a0a8",
"#Q c #84aec8",
".I c #86a8bd",
".L c #89b3cd",
"#d c #8aa7b6",
"as c #8db2cc",
".y c #8db9cd",
".h c #8eb5c9",
".8 c #8eb9d3",
"#W c #8fb2c9",
"at c #91b7c8",
"#3 c #94b4cb",
"ar c #95b7cb",
".T c #979798",
".U c #99999a",
"#f c #99b9cd",
".g c #9b9b9b",
".V c #9c9c9c",
".r c #9cc2d4",
".w c #a7c8d0",
".x c #a9c8d1",
"#p c #a9cbda",
".f c #abc5cd",
"#E c #abcad6",
"aq c #b1d0e0",
"au c #b3d2e2",
".7 c #b8cfd6",
"#e c #baced7",
".W c #d4e0e4",
".H c #d7e7ed",
".M c #dae6ef",
".D c #eef8f8",
"QtQtQtQt.#.a.b.c.d.e.fQtQtQtQtQtQtQtQt.g.gQtQtQtQt",
"QtQt.h.i.j.k.l.m.n.o.p.qQtQtQtQtQtQtQt.g.gQtQtQtQt",
"Qt.r.s.t.u.v.w.x.y.z.A.B.CQtQtQtQtQtQt.g.gQtQtQtQt",
".D.E.F.G.HQtQtQtQtQt.I.J.K.LQtQtQtQtQt.g.gQtQtQtQt",
".M.N.O.PQtQtQtQtQtQtQt.Q.R.SQt.g.T.U.g.g.g.V.V.g.g",
".W.X.Y.ZQtQtQtQtQtQtQt.0.1.2Qt.g.g.g.g.g.g.g.g.g.g",
"Qt.3.4.5.6.7QtQtQtQtQtQtQtQtQtQtQtQtQt.g.gQtQtQtQt",
"Qt.8.9#.###a#b#c#d#eQtQtQtQtQtQtQtQtQt.g.gQtQtQtQt",
"QtQt#f#g#h#i#j#k#l#m#n#oQtQtQtQtQtQtQt.g.gQtQtQtQt",
"QtQtQtQt#p#q#r#s#t#u#v#w#xQtQtQtQtQtQt.g.gQtQtQtQt",
"QtQtQtQtQtQtQtQt#y#z#A#B#C#DQtQtQtQtQtQtQtQtQtQtQt",
"QtQtQtQtQtQtQtQtQtQt#E#F#G#HQtQtQtQtQtQtQtQtQtQtQt",
"#I#J#KQtQtQtQtQtQtQtQt#L.B#MQtQtQtQtQtQtQtQtQtQtQt",
"#N#O#PQtQtQtQtQtQtQtQt#Q#R#SQtQtQtQtQtQtQtQtQtQtQt",
"#T#U#V#WQtQtQtQtQtQtQt#X#Y#ZQtQtQtQtQtQtQtQtQtQtQt",
"Qt#0#1#2#3QtQtQtQtQt#4#5#6#7QtQtQtQtQtQtQtQtQtQtQt",
"QtQt#8#9a.a#aaabacadaeafagQtQtQtQtQtQtQtQtQtQtQtQt",
"QtQtQtahaiajakalamanaoapQtQtQtQtQtQtQtQtQtQtQtQtQt",
"QtQtQtQtQtaqarasatauQtQtQtQtQtQtQtQtQtQtQtQtQtQtQt"};
