/* XPM */
static char *rlogo3[] = {
/* width height num_colors chars_per_pixel */
"    24    24      130            2",
/* colors */
".. c None s backgroundToolBarColor",
".# c #747684",
".a c #acaeac",
".b c #8492bc",
".c c #94a2c4",
".d c #c4cacc",
".e c #84868c",
".f c #3c424c",
".g c #949aac",
".h c #bcbec4",
".i c #545e74",
".j c #d4dae4",
".k c #94a2d4",
".l c #8492c4",
".m c #7486ac",
".n c #a4b2d4",
".o c #ccd2e4",
".p c #9caacc",
".q c #8c9ac4",
".r c #848eac",
".s c #444e64",
".t c #949acc",
".u c #bcc2ec",
".v c #dce2e4",
".w c #b4bad4",
".x c #5c6674",
".y c #d4daec",
".z c #9ca2d4",
".A c #acbae4",
".B c #7c82a4",
".C c #6c769c",
".D c #d4d2d4",
".E c #8c92c4",
".F c #7c8eac",
".G c #a4b2dc",
".H c #545664",
".I c #8c92ac",
".J c #8c8e94",
".K c #949abc",
".L c #5c5e74",
".M c #7c86ac",
".N c #747ea4",
".O c #242a34",
".P c #9ca2bc",
".Q c #8c8a8c",
".R c #6c6e7c",
".S c #7482b4",
".T c #9c9aa4",
".U c #b4bedc",
".V c #dcdedc",
".W c #94a6d4",
".X c #8496c4",
".Y c #acb2cc",
".Z c #ccd2f4",
".0 c #8c9ad4",
".1 c #848ebc",
".2 c #949ed4",
".3 c #9ca6dc",
".4 c #7c8abc",
".5 c #7482a4",
".6 c #3c3a3c",
".7 c #9ca6bc",
".8 c #747a8c",
".9 c #acaebc",
"#. c #8496b4",
"## c #c4cadc",
"#a c #545e84",
"#b c #747aa4",
"#c c #64728c",
"#d c #ccd6ec",
"#e c #9caadc",
"#f c #8c9ecc",
"#g c #949ec4",
"#h c #bcc6f4",
"#i c #9ca6cc",
"#j c #8c96c4",
"#k c #8c96bc",
"#l c #5c6274",
"#m c #7c8ab4",
"#n c #4c4e6c",
"#o c #9c9ea4",
"#p c #acb6d4",
"#q c #acaeb4",
"#r c #848694",
"#s c #3c465c",
"#t c #bcbecc",
"#u c #545e7c",
"#v c #d4dee4",
"#w c #6c7aa4",
"#x c #94a2dc",
"#y c #8492cc",
"#z c #7486b4",
"#A c #646a84",
"#B c #9caad4",
"#C c #8c9acc",
"#D c #848eb4",
"#E c #4c4e54",
"#F c #bcc6e4",
"#G c #5c668c",
"#H c #d4deec",
"#I c #7c82ac",
"#J c #6c7a9c",
"#K c #a4aac4",
"#L c #d4d6dc",
"#M c #a4b2e4",
"#N c #545674",
"#O c #b4bac4",
"#P c #8c96b4",
"#Q c #c4c6cc",
"#R c #7c86b4",
"#S c #2c2e3c",
"#T c #bcc2d4",
"#U c #ccced4",
"#V c #6c727c",
"#W c #c4cedc",
"#X c #4c526c",
"#Y c #747eac",
"#Z c #9ca2c4",
"#0 c #8c8a94",
"#1 c #dcdee4",
"#2 c #94a6dc",
"#3 c #8496cc",
"#4 c #acb2d4",
"#5 c #848ec4",
"#6 c #dcdef4",
"#7 c #7482ac",
"#8 c #949ecc",
"#9 c #9ca6d4",
"a. c #8c96cc",
"a# c #5c627c",
/* pixels */
"................................................",
"................................................",
".....d.y#H#v.j#v.j#v.y#v#v.j.j#W#F#p............",
"....#4.b#J#w#I.P#i#g#Z#8#Z#j#R#Y#ma.#P.j........",
".....Y.l.5.X.u.P.i#n.s#n#u#b#8.X.4.4.M#r........",
".....Y#y#z.3.G#X.Q.Q.Q#0.J#r#a.b#ja..E.C........",
".....Y#y.m.k#8.x.............Y#m.4.2.z.H.T......",
".....Y.E.S.k#8#l...............q#z.0.3#N.g......",
".....Y.l#z#9.ta#..............#B#Y.k.G.L#Q......",
".....Y.E.m.2.t.C............#6.I.F#d.I#s........",
".....Y.l#za..l.g#L#1.v#1.o#U#K#P###T#S#o........",
".....Y.X#7a.#j.b#C.p.c#..N.C.K#W#r.O.6.D........",
".....Y#y#7.2.Z.o.I.B.I#9#f#x#h#s#E#q............",
".....Y#j#7.W.u.i.6.f#X#A#j#2#e#X#T..............",
".....Y#y.m.k#8#l......#O#G#j#f.F.w..............",
".....Y#y#I#x#8#l.........9.N.l#R.1#J#Q..........",
".....Y#5#z.k#8#l........#O#c#D#5#5.b.I.V........",
"....#4.l#R.k.t#l...........9.N.l#3.E.C.g........",
".....Y#y.m#x#8.x.............g.b#3#C.1.C#U......",
"....#4.E#k.A#i#l.............7#Y.X#M.p.B.g......",
".....Y.1.c.U.K.i..............#G#m.n#p.r.i......",
"....#t.8#V#A.R.e...............h.8.R.R.R.#.a....",
"................................................",
"................................................"
};
