/* XPM */
static char *switchs[]={
"24 24 5 1",
". c None",
"# c #000000",
"c c #1532ed",
"b c #838383",
"a c #ce3000",
"........................",
"........###.aaa.bbb.....",
"........###.aaa.bbb.....",
"........###.aaa.bbb.....",
"..ccc...................",
"..ccc...aaa.bbb....bbb..",
"..ccc...aaa.bbb....bbb..",
"..ccc...aaa.bbb....bbb..",
"..ccc...................",
"..ccc...bbb....bbb.aaa..",
"..ccc...bbb....bbb.aaa..",
"..ccc...bbb....bbb.aaa..",
"..ccc...................",
"..ccc......bbb.aaa.###..",
"..ccc......bbb.aaa.###..",
"..ccc......bbb.aaa.###..",
"..ccc...................",
"..ccc...........c.......",
"..ccc...........cc......",
"..ccccccccccccccccc.....",
"..cccccccccccccccccc....",
"...cccccccccccccccc.....",
"................cc......",
"................c......."};
