/* XPM */
static char *switch_ess[]={
"24 24 13 1",
". c None s backgroundToolBarColor",
"a c #000000",
"e c #131313",
"# c #1532ed",
"d c #313131",
"k c #434343",
"j c #535353",
"h c #707070",
"b c #878787",
"i c #949494",
"g c #a0a0a0",
"f c #bfbfbf",
"c c #c3c3c3",
"........................",
"........................",
"........................",
"........................",
"..###...................",
"..###...................",
"..###...................",
"..###.aaaab.cdedc.cdedc.",
"..###.af....ag....ag....",
"..###.af....ba....ba....",
"..###.aaad...fah...fah..",
"..###.af.......ga....ga.",
"..###.af....i..jk.i..jk.",
"..###.aaaak.jeej..jeej..",
"..###...................",
"..###...................",
"..###...................",
"..###...........#.......",
"..###...........##......",
"..#################.....",
"..##################....",
"...################.....",
"................##......",
"................#......."};
